<svg width="162" height="24" viewBox="0 0 162 24" fill="none" xmlns="http://www.w3.org/2000/svg">
<path fill-rule="evenodd" clip-rule="evenodd" d="M6.0334 17.7773H0.825195L6.6931 0H13.2902L19.1581 17.7773H13.9499L12.9227 14.3746H7.06063L6.0334 17.7773ZM10.0611 4.89571L11.8325 10.7636H8.15075L9.92219 4.89571H10.0611Z" fill="#1F2937"/>
<path d="M25.7315 17.7773V0H20.9399V17.7773H25.7315Z" fill="#1F2937"/>
<path d="M59.2548 0H65.2616L69.3934 10.0692H69.6018L73.7336 0H79.7404V17.7773H75.0183V7.49982H74.8794L70.9212 17.6385H68.074L64.1158 7.43037H63.9769V17.7773H59.2548V0Z" fill="#1F2937"/>
<path d="M135.499 7.9165V4.44436H133.207V1.24999H128.415V4.44436H126.714V7.9165H128.415V13.9407C128.404 14.8723 128.586 15.6478 128.962 16.267C129.338 16.8862 129.9 17.3405 130.646 17.6298C131.393 17.9134 132.316 18.0262 133.415 17.9683C133.959 17.9394 134.428 17.8786 134.822 17.786C135.221 17.6935 135.528 17.6153 135.742 17.5517L135.047 14.1837C134.955 14.2068 134.81 14.2358 134.613 14.2705C134.422 14.3052 134.254 14.3226 134.11 14.3226C133.901 14.3226 133.731 14.2937 133.598 14.2358C133.465 14.1721 133.366 14.0795 133.302 13.958C133.239 13.8307 133.207 13.6745 133.207 13.4893V7.9165H135.499Z" fill="#1F2937"/>
<path fill-rule="evenodd" clip-rule="evenodd" d="M143.699 18.0204C142.276 18.0204 141.049 17.7484 140.019 17.2045C138.995 16.6547 138.205 15.8677 137.649 14.8434C137.099 13.8133 136.824 12.5807 136.824 11.1456C136.824 9.7683 137.102 8.56463 137.658 7.53456C138.213 6.5045 138.997 5.70301 140.01 5.13011C141.023 4.55721 142.218 4.27075 143.595 4.27075C144.602 4.27075 145.513 4.427 146.329 4.73949C147.145 5.05199 147.843 5.50626 148.421 6.10231C149 6.69257 149.446 7.41014 149.758 8.25503C150.071 9.09992 150.227 10.0519 150.227 11.1109V12.2219H141.547V12.4303C141.547 12.8585 141.636 13.2404 141.816 13.5761C141.995 13.9117 142.253 14.175 142.588 14.366C142.924 14.557 143.329 14.6524 143.803 14.6524C144.133 14.6524 144.434 14.6061 144.706 14.5136C144.984 14.421 145.221 14.2879 145.418 14.1143C145.615 13.9349 145.759 13.7208 145.852 13.4719H150.227C150.076 14.3978 149.721 15.2022 149.159 15.8851C148.598 16.5621 147.854 17.0887 146.928 17.4649C146.008 17.8352 144.932 18.0204 143.699 18.0204ZM141.85 8.56752C141.659 8.85687 141.558 9.1954 141.547 9.58312H145.817C145.811 9.20119 145.713 8.86555 145.522 8.5762C145.337 8.28107 145.085 8.05249 144.767 7.89046C144.454 7.72264 144.099 7.63873 143.699 7.63873C143.312 7.63873 142.956 7.72264 142.632 7.89046C142.308 8.05249 142.047 8.27818 141.85 8.56752Z" fill="#1F2937"/>
<path d="M152.182 17.7774V4.44436H156.835V6.97902H156.974C157.217 6.04154 157.602 5.3558 158.128 4.92178C158.661 4.48776 159.283 4.27075 159.995 4.27075C160.203 4.27075 160.408 4.28812 160.611 4.32284C160.819 4.35177 161.019 4.39517 161.21 4.45304V8.54148C160.973 8.46047 160.68 8.3997 160.333 8.35919C159.986 8.31869 159.688 8.29843 159.439 8.29843C158.97 8.29843 158.548 8.40549 158.172 8.61961C157.801 8.82793 157.509 9.12306 157.295 9.505C157.081 9.88115 156.974 10.3238 156.974 10.8331V17.7774H152.182Z" fill="#1F2937"/>
<path d="M125.364 8.78453H120.955C120.932 8.51255 120.836 8.27818 120.668 8.08142C120.501 7.88467 120.284 7.73421 120.017 7.63005C119.757 7.5201 119.468 7.46512 119.149 7.46512C118.738 7.46512 118.385 7.54035 118.09 7.69081C117.795 7.84127 117.651 8.05538 117.656 8.33315C117.651 8.52991 117.734 8.7122 117.908 8.88002C118.087 9.04784 118.432 9.17804 118.941 9.27063L121.649 9.75673C123.015 10.0056 124.031 10.4251 124.696 11.0154C125.367 11.5999 125.706 12.384 125.712 13.3678C125.706 14.3168 125.422 15.1414 124.861 15.8417C124.305 16.5361 123.544 17.0743 122.578 17.4562C121.617 17.8323 120.521 18.0204 119.288 18.0204C117.251 18.0204 115.657 17.6038 114.505 16.7704C113.36 15.9371 112.72 14.8376 112.587 13.4719H117.344C117.407 13.8944 117.616 14.2213 117.969 14.4528C118.328 14.6785 118.779 14.7913 119.323 14.7913C119.763 14.7913 120.124 14.7161 120.408 14.5656C120.697 14.4152 120.845 14.2011 120.851 13.9233C120.845 13.6687 120.718 13.4661 120.469 13.3157C120.226 13.1652 119.844 13.0437 119.323 12.9511L116.962 12.5344C115.602 12.2972 114.583 11.8458 113.906 11.1803C113.229 10.5148 112.894 9.65835 112.899 8.61093C112.894 7.68502 113.137 6.9009 113.629 6.25855C114.126 5.61042 114.835 5.11853 115.755 4.78289C116.681 4.44147 117.778 4.27075 119.045 4.27075C120.972 4.27075 122.491 4.67005 123.602 5.46864C124.719 6.26723 125.307 7.37253 125.364 8.78453Z" fill="#1F2937"/>
<path d="M102.166 17.7774V10.2776C102.172 9.83775 102.253 9.4616 102.409 9.14911C102.566 8.83083 102.788 8.58778 103.078 8.41996C103.373 8.24635 103.717 8.15955 104.111 8.15955C104.712 8.15955 105.181 8.34762 105.517 8.72377C105.858 9.09992 106.026 9.61784 106.02 10.2776V17.7774H110.812V9.27063C110.818 8.30422 110.627 7.44487 110.239 6.69257C109.857 5.94027 109.316 5.35001 108.616 4.92178C107.921 4.48776 107.102 4.27075 106.159 4.27075C105.181 4.27075 104.325 4.51091 103.59 4.99122C102.861 5.47154 102.351 6.13413 102.062 6.97902H101.923V4.44436H97.3747V17.7774H102.166Z" fill="#1F2937"/>
<path fill-rule="evenodd" clip-rule="evenodd" d="M46.755 17.1611C47.7851 17.734 49.0235 18.0204 50.4702 18.0204C51.9169 18.0204 53.1553 17.734 54.1854 17.1611C55.2155 16.5824 56.0054 15.778 56.5551 14.7479C57.1049 13.7121 57.3798 12.5113 57.3798 11.1456C57.3798 9.77988 57.1049 8.58199 56.5551 7.55192C56.0054 6.51607 55.2155 5.71169 54.1854 5.13879C53.1553 4.5601 51.9169 4.27075 50.4702 4.27075C49.0235 4.27075 47.7851 4.5601 46.755 5.13879C45.7249 5.71169 44.935 6.51607 44.3853 7.55192C43.8355 8.58199 43.5606 9.77988 43.5606 11.1456C43.5606 12.5113 43.8355 13.7121 44.3853 14.7479C44.935 15.778 45.7249 16.5824 46.755 17.1611ZM51.5553 14.0709C51.2601 14.3428 50.91 14.4788 50.5049 14.4788C50.0767 14.4788 49.7092 14.3428 49.4025 14.0709C49.0958 13.7989 48.8614 13.4112 48.6994 12.9077C48.5374 12.4042 48.4564 11.8053 48.4564 11.1109C48.4564 10.4107 48.5374 9.81171 48.6994 9.31403C48.8614 8.81057 49.0958 8.42285 49.4025 8.15087C49.7092 7.87888 50.0767 7.74289 50.5049 7.74289C50.91 7.74289 51.2601 7.87888 51.5553 8.15087C51.8504 8.42285 52.079 8.81057 52.241 9.31403C52.403 9.81171 52.484 10.4107 52.484 11.1109C52.484 11.8053 52.403 12.4042 52.241 12.9077C52.079 13.4112 51.8504 13.7989 51.5553 14.0709Z" fill="#1F2937"/>
<path fill-rule="evenodd" clip-rule="evenodd" d="M34.5962 23.055C33.2594 23.055 32.1136 22.864 31.1588 22.4821C30.2097 22.106 29.4719 21.5851 28.9453 20.9197C28.4245 20.2599 28.1322 19.5019 28.0686 18.6454H32.6865C32.7328 18.929 32.8486 19.1575 33.0337 19.3311C33.2189 19.5048 33.4562 19.6292 33.7455 19.7044C34.0407 19.7854 34.3705 19.8259 34.7351 19.8259C35.3543 19.8259 35.8664 19.6755 36.2715 19.3745C36.6824 19.0736 36.8878 18.5297 36.8878 17.7426V15.4858H36.7489C36.5753 15.9371 36.3091 16.322 35.9503 16.6402C35.5916 16.9527 35.1604 17.1929 34.657 17.3607C34.1535 17.5227 33.6009 17.6038 32.999 17.6038C32.05 17.6038 31.1762 17.3839 30.3776 16.9441C29.5848 16.5042 28.9482 15.8069 28.4679 14.8521C27.9934 13.8973 27.7561 12.6502 27.7561 11.1109C27.7561 9.50211 28.0049 8.19427 28.5026 7.18735C29.0061 6.18043 29.6542 5.4426 30.447 4.97386C31.2456 4.50512 32.0847 4.27075 32.9643 4.27075C33.624 4.27075 34.2027 4.38649 34.7004 4.61797C35.198 4.84366 35.6147 5.14747 35.9503 5.5294C36.286 5.90555 36.5406 6.31932 36.7142 6.77069H36.8184V4.44436H41.6099V17.7426C41.6099 18.8711 41.3177 19.8288 40.7332 20.6158C40.1545 21.4086 39.3386 22.0134 38.2854 22.43C37.2321 22.8467 36.0024 23.055 34.5962 23.055ZM34.7698 14.2011C35.2096 14.2011 35.5858 14.0795 35.8983 13.8365C36.2165 13.5877 36.4596 13.2347 36.6274 12.7775C36.801 12.3145 36.8878 11.759 36.8878 11.1109C36.8878 10.4512 36.801 9.88694 36.6274 9.4182C36.4596 8.94367 36.2165 8.58199 35.8983 8.33315C35.5858 8.07853 35.2096 7.95122 34.7698 7.95122C34.33 7.95122 33.9539 8.07853 33.6414 8.33315C33.3347 8.58199 33.0974 8.94367 32.9296 9.4182C32.7675 9.88694 32.6865 10.4512 32.6865 11.1109C32.6865 11.7706 32.7675 12.3319 32.9296 12.7949C33.0974 13.252 33.3347 13.6021 33.6414 13.8452C33.9539 14.0824 34.33 14.2011 34.7698 14.2011Z" fill="#1F2937"/>
<path d="M88.6703 9.16644C87.6859 9.16644 86.8879 9.96443 86.8879 10.9488C86.8879 11.9332 87.6859 12.7312 88.6703 12.7312C89.6546 12.7312 90.4526 11.9332 90.4526 10.9488C90.4526 10.7303 90.4133 10.521 90.3414 10.3275C90.2073 10.5474 89.9652 10.6942 89.6888 10.6942C89.2669 10.6942 88.9249 10.3522 88.9249 9.93031C88.9249 9.65393 89.0717 9.41182 89.2915 9.27771C89.0981 9.20576 88.8888 9.16644 88.6703 9.16644Z" fill="#1F2937"/>
<path fill-rule="evenodd" clip-rule="evenodd" d="M95.2679 2.83948C95.1171 2.3816 94.4619 2.49165 94.2495 2.92439C93.805 3.83021 93.0285 4.50759 92.0404 4.95528C91.0445 4.39412 89.8948 4.07397 88.6703 4.07397C87.4457 4.07397 86.296 4.39412 85.3001 4.95528C84.3121 4.50759 83.5355 3.83021 83.091 2.92439C82.8786 2.49165 82.2234 2.3816 82.0727 2.83948C81.8922 3.38749 81.7954 3.96738 81.7954 4.56742C81.7954 5.66022 82.1165 6.6862 82.6791 7.57453C82.1165 8.57133 81.7954 9.72258 81.7954 10.9488C81.7954 14.7457 84.8734 17.8236 88.6703 17.8236C92.4671 17.8236 95.5451 14.7457 95.5451 10.9488C95.5451 9.72258 95.2241 8.57133 94.6614 7.57453C95.2241 6.6862 95.5451 5.66022 95.5451 4.56742C95.5451 3.96738 95.4483 3.38749 95.2679 2.83948ZM88.6703 7.6387C86.8422 7.6387 85.3602 9.12069 85.3602 10.9488C85.3602 12.7769 86.8422 14.2589 88.6703 14.2589C90.4984 14.2589 91.9804 12.7769 91.9804 10.9488C91.9804 9.12069 90.4984 7.6387 88.6703 7.6387Z" fill="#1F2937"/>
</svg>
